<mxfile host="Electron" modified="2024-02-28T21:08:56.942Z" agent="Mozilla/5.0 (Windows NT 10.0; Win64; x64) AppleWebKit/537.36 (KHTML, like Gecko) draw.io/23.1.5 Chrome/120.0.6099.109 Electron/28.1.0 Safari/537.36" etag="3XOO7ToQgBG8I_P2XvpG" version="23.1.5" type="device">
  <diagram name="Page-1" id="wwcAmoKE4ff-LdCQXhId">
    <mxGraphModel dx="1434" dy="844" grid="1" gridSize="10" guides="1" tooltips="1" connect="1" arrows="1" fold="1" page="1" pageScale="1" pageWidth="1600" pageHeight="900" math="0" shadow="0">
      <root>
        <mxCell id="0" />
        <mxCell id="1" parent="0" />
        <mxCell id="lHafdiveaEFVnNRA9OqB-107" value="PHY&lt;br&gt;&lt;br&gt;&lt;br&gt;&lt;br&gt;&lt;br&gt;&lt;br&gt;&lt;br&gt;&lt;br&gt;&lt;br&gt;&lt;br&gt;&lt;br&gt;&lt;br&gt;&lt;br&gt;&lt;br&gt;&lt;br&gt;&lt;br&gt;&lt;br&gt;&lt;br&gt;&lt;br&gt;&lt;br&gt;&lt;br&gt;&lt;br&gt;&lt;div style=&quot;&quot;&gt;&lt;br&gt;&lt;/div&gt;" style="rounded=0;whiteSpace=wrap;html=1;fillColor=#76608a;fontColor=#ffffff;strokeColor=#432D57;align=left;fontFamily=Courier New;" parent="1" vertex="1">
          <mxGeometry x="880" y="440" width="200" height="330" as="geometry" />
        </mxCell>
        <mxCell id="lHafdiveaEFVnNRA9OqB-118" value="PHY&lt;br&gt;&lt;br&gt;&lt;br&gt;&lt;br&gt;&lt;br&gt;&lt;br&gt;&lt;br&gt;&lt;br&gt;&lt;br&gt;&lt;br&gt;&lt;br&gt;&lt;br&gt;&lt;br&gt;&lt;br&gt;&lt;br&gt;&lt;br&gt;&lt;br&gt;&lt;br&gt;&lt;br&gt;&lt;br&gt;&lt;br&gt;&lt;br&gt;&lt;br&gt;&lt;br&gt;&lt;br&gt;&lt;br&gt;&lt;br&gt;&lt;div style=&quot;&quot;&gt;&lt;br&gt;&lt;/div&gt;" style="rounded=0;whiteSpace=wrap;html=1;fillColor=#76608a;fontColor=#ffffff;strokeColor=#432D57;align=left;fontFamily=Courier New;" parent="1" vertex="1">
          <mxGeometry x="1360" y="440" width="200" height="400" as="geometry" />
        </mxCell>
        <mxCell id="lHafdiveaEFVnNRA9OqB-130" value="VM&lt;br&gt;&lt;br&gt;&lt;div&gt;&lt;br&gt;&lt;/div&gt;&lt;div&gt;&lt;br&gt;&lt;/div&gt;&lt;div&gt;&lt;br&gt;&lt;/div&gt;&lt;div&gt;&lt;br&gt;&lt;/div&gt;&lt;div&gt;&lt;br&gt;&lt;/div&gt;&lt;div&gt;&lt;br&gt;&lt;/div&gt;&lt;div&gt;&lt;br&gt;&lt;/div&gt;&lt;div&gt;&lt;br&gt;&lt;/div&gt;&lt;div&gt;&lt;br&gt;&lt;/div&gt;&lt;div&gt;&lt;br&gt;&lt;/div&gt;" style="rounded=0;whiteSpace=wrap;html=1;align=left;fontFamily=Courier New;fillColor=#a20025;fontColor=#ffffff;strokeColor=#6F0000;" parent="1" vertex="1">
          <mxGeometry x="1370" y="460" width="180" height="170" as="geometry" />
        </mxCell>
        <mxCell id="lHafdiveaEFVnNRA9OqB-83" value="PHY&lt;br&gt;&lt;br&gt;&lt;br&gt;&lt;br&gt;&lt;br&gt;&lt;br&gt;&lt;br&gt;&lt;br&gt;&lt;br&gt;&lt;br&gt;&lt;br&gt;&lt;br&gt;&lt;br&gt;&lt;br&gt;&lt;br&gt;&lt;br&gt;&lt;br&gt;&lt;br&gt;&lt;br&gt;&lt;br&gt;&lt;br&gt;&lt;br&gt;&lt;div style=&quot;&quot;&gt;&lt;br&gt;&lt;/div&gt;" style="rounded=0;whiteSpace=wrap;html=1;fillColor=#76608a;fontColor=#ffffff;strokeColor=#432D57;align=left;fontFamily=Courier New;" parent="1" vertex="1">
          <mxGeometry x="1120" y="440" width="200" height="330" as="geometry" />
        </mxCell>
        <mxCell id="lHafdiveaEFVnNRA9OqB-85" value="Swarm/Compose&lt;br&gt;&lt;br&gt;&lt;div&gt;&lt;br&gt;&lt;/div&gt;&lt;div&gt;&lt;br&gt;&lt;/div&gt;&lt;div&gt;&lt;br&gt;&lt;/div&gt;&lt;div&gt;&lt;br&gt;&lt;/div&gt;&lt;div&gt;&lt;br&gt;&lt;/div&gt;&lt;div&gt;&lt;br&gt;&lt;/div&gt;&lt;div&gt;&lt;br&gt;&lt;/div&gt;&lt;div&gt;&lt;br&gt;&lt;/div&gt;&lt;div&gt;&lt;br&gt;&lt;/div&gt;&lt;div&gt;&lt;br&gt;&lt;/div&gt;&lt;div&gt;&lt;br&gt;&lt;/div&gt;&lt;div&gt;&lt;br&gt;&lt;/div&gt;&lt;div&gt;&lt;br&gt;&lt;/div&gt;&lt;div&gt;&lt;br&gt;&lt;/div&gt;&lt;div&gt;&lt;br&gt;&lt;/div&gt;&lt;div&gt;&lt;br&gt;&lt;/div&gt;&lt;div&gt;&lt;br&gt;&lt;/div&gt;&lt;div&gt;&lt;br&gt;&lt;/div&gt;&lt;div&gt;&lt;br&gt;&lt;/div&gt;" style="rounded=0;whiteSpace=wrap;html=1;align=left;fontFamily=Courier New;fillColor=#6d8764;fontColor=#ffffff;strokeColor=#3A5431;" parent="1" vertex="1">
          <mxGeometry x="1135" y="460" width="175" height="300" as="geometry" />
        </mxCell>
        <mxCell id="lHafdiveaEFVnNRA9OqB-82" value="PHY&lt;br&gt;&lt;br&gt;&lt;br&gt;&lt;br&gt;&lt;br&gt;&lt;br&gt;&lt;br&gt;&lt;br&gt;&lt;br&gt;&lt;br&gt;&lt;br&gt;&lt;br&gt;&lt;br&gt;&lt;br&gt;&lt;br&gt;&lt;br&gt;&lt;br&gt;&lt;br&gt;&lt;br&gt;&lt;br&gt;&lt;br&gt;&lt;br&gt;&lt;div style=&quot;&quot;&gt;&lt;br&gt;&lt;/div&gt;" style="rounded=0;whiteSpace=wrap;html=1;fillColor=#76608a;fontColor=#ffffff;strokeColor=#432D57;align=left;fontFamily=Courier New;" parent="1" vertex="1">
          <mxGeometry x="320" y="440" width="200" height="330" as="geometry" />
        </mxCell>
        <mxCell id="lHafdiveaEFVnNRA9OqB-156" style="edgeStyle=orthogonalEdgeStyle;rounded=0;orthogonalLoop=1;jettySize=auto;html=1;exitX=0.25;exitY=1;exitDx=0;exitDy=0;entryX=0.5;entryY=0;entryDx=0;entryDy=0;" parent="1" source="lHafdiveaEFVnNRA9OqB-1" target="lHafdiveaEFVnNRA9OqB-3" edge="1">
          <mxGeometry relative="1" as="geometry">
            <Array as="points">
              <mxPoint x="400" y="160" />
              <mxPoint x="400" y="190" />
              <mxPoint x="140" y="190" />
            </Array>
          </mxGeometry>
        </mxCell>
        <mxCell id="lHafdiveaEFVnNRA9OqB-157" style="edgeStyle=orthogonalEdgeStyle;rounded=0;orthogonalLoop=1;jettySize=auto;html=1;exitX=0.25;exitY=1;exitDx=0;exitDy=0;entryX=0.5;entryY=0;entryDx=0;entryDy=0;" parent="1" source="lHafdiveaEFVnNRA9OqB-1" target="lHafdiveaEFVnNRA9OqB-4" edge="1">
          <mxGeometry relative="1" as="geometry">
            <Array as="points">
              <mxPoint x="410" y="160" />
              <mxPoint x="410" y="200" />
              <mxPoint x="380" y="200" />
            </Array>
          </mxGeometry>
        </mxCell>
        <mxCell id="lHafdiveaEFVnNRA9OqB-158" style="edgeStyle=orthogonalEdgeStyle;rounded=0;orthogonalLoop=1;jettySize=auto;html=1;exitX=0.5;exitY=1;exitDx=0;exitDy=0;" parent="1" source="lHafdiveaEFVnNRA9OqB-1" target="lHafdiveaEFVnNRA9OqB-5" edge="1">
          <mxGeometry relative="1" as="geometry">
            <Array as="points">
              <mxPoint x="630" y="160" />
              <mxPoint x="630" y="220" />
              <mxPoint x="700" y="220" />
            </Array>
          </mxGeometry>
        </mxCell>
        <mxCell id="lHafdiveaEFVnNRA9OqB-159" style="edgeStyle=orthogonalEdgeStyle;rounded=0;orthogonalLoop=1;jettySize=auto;html=1;exitX=0.75;exitY=1;exitDx=0;exitDy=0;entryX=0.5;entryY=0;entryDx=0;entryDy=0;" parent="1" source="lHafdiveaEFVnNRA9OqB-1" target="lHafdiveaEFVnNRA9OqB-35" edge="1">
          <mxGeometry relative="1" as="geometry">
            <Array as="points">
              <mxPoint x="640" y="160" />
              <mxPoint x="640" y="210" />
              <mxPoint x="940" y="210" />
            </Array>
          </mxGeometry>
        </mxCell>
        <mxCell id="lHafdiveaEFVnNRA9OqB-160" style="edgeStyle=orthogonalEdgeStyle;rounded=0;orthogonalLoop=1;jettySize=auto;html=1;exitX=0.75;exitY=1;exitDx=0;exitDy=0;entryX=0.5;entryY=0;entryDx=0;entryDy=0;" parent="1" source="lHafdiveaEFVnNRA9OqB-1" target="lHafdiveaEFVnNRA9OqB-128" edge="1">
          <mxGeometry relative="1" as="geometry">
            <Array as="points">
              <mxPoint x="650" y="160" />
              <mxPoint x="650" y="200" />
              <mxPoint x="1180" y="200" />
            </Array>
          </mxGeometry>
        </mxCell>
        <mxCell id="lHafdiveaEFVnNRA9OqB-161" style="edgeStyle=orthogonalEdgeStyle;rounded=0;orthogonalLoop=1;jettySize=auto;html=1;exitX=0.75;exitY=1;exitDx=0;exitDy=0;entryX=0.5;entryY=0;entryDx=0;entryDy=0;" parent="1" source="lHafdiveaEFVnNRA9OqB-1" target="lHafdiveaEFVnNRA9OqB-129" edge="1">
          <mxGeometry relative="1" as="geometry">
            <Array as="points">
              <mxPoint x="660" y="160" />
              <mxPoint x="660" y="190" />
              <mxPoint x="1420" y="190" />
            </Array>
          </mxGeometry>
        </mxCell>
        <mxCell id="lHafdiveaEFVnNRA9OqB-1" value="Router" style="rounded=0;whiteSpace=wrap;html=1;fontFamily=Courier New;fillColor=#6a00ff;fontColor=#ffffff;strokeColor=#3700CC;" parent="1" vertex="1">
          <mxGeometry x="360" y="120" width="360" height="40" as="geometry" />
        </mxCell>
        <mxCell id="lHafdiveaEFVnNRA9OqB-150" style="edgeStyle=orthogonalEdgeStyle;rounded=0;orthogonalLoop=1;jettySize=auto;html=1;exitX=0.875;exitY=0.5;exitDx=0;exitDy=0;exitPerimeter=0;entryX=0.5;entryY=0;entryDx=0;entryDy=0;" parent="1" source="lHafdiveaEFVnNRA9OqB-2" target="lHafdiveaEFVnNRA9OqB-1" edge="1">
          <mxGeometry relative="1" as="geometry" />
        </mxCell>
        <mxCell id="lHafdiveaEFVnNRA9OqB-2" value="&lt;font&gt;Internet&lt;/font&gt;" style="ellipse;shape=cloud;whiteSpace=wrap;html=1;align=center;fontFamily=Courier New;fillColor=#1ba1e2;fontColor=#ffffff;strokeColor=#006EAF;" parent="1" vertex="1">
          <mxGeometry x="40" y="40" width="160" height="120" as="geometry" />
        </mxCell>
        <mxCell id="lHafdiveaEFVnNRA9OqB-32" style="edgeStyle=orthogonalEdgeStyle;rounded=0;orthogonalLoop=1;jettySize=auto;html=1;exitX=0.5;exitY=1;exitDx=0;exitDy=0;entryX=0.5;entryY=0;entryDx=0;entryDy=0;" parent="1" source="lHafdiveaEFVnNRA9OqB-3" target="lHafdiveaEFVnNRA9OqB-8" edge="1">
          <mxGeometry relative="1" as="geometry" />
        </mxCell>
        <mxCell id="lHafdiveaEFVnNRA9OqB-3" value="Router" style="rounded=0;whiteSpace=wrap;html=1;fontFamily=Courier New;fillColor=#6a00ff;fontColor=#ffffff;strokeColor=#3700CC;" parent="1" vertex="1">
          <mxGeometry x="40" y="240" width="200" height="40" as="geometry" />
        </mxCell>
        <mxCell id="lHafdiveaEFVnNRA9OqB-31" style="edgeStyle=orthogonalEdgeStyle;rounded=0;orthogonalLoop=1;jettySize=auto;html=1;exitX=0.5;exitY=1;exitDx=0;exitDy=0;entryX=0.5;entryY=0;entryDx=0;entryDy=0;" parent="1" source="lHafdiveaEFVnNRA9OqB-4" target="lHafdiveaEFVnNRA9OqB-25" edge="1">
          <mxGeometry relative="1" as="geometry" />
        </mxCell>
        <mxCell id="lHafdiveaEFVnNRA9OqB-4" value="Router" style="rounded=0;whiteSpace=wrap;html=1;fontFamily=Courier New;fillColor=#6a00ff;fontColor=#ffffff;strokeColor=#3700CC;" parent="1" vertex="1">
          <mxGeometry x="280" y="240" width="200" height="40" as="geometry" />
        </mxCell>
        <mxCell id="lHafdiveaEFVnNRA9OqB-138" style="edgeStyle=orthogonalEdgeStyle;rounded=0;orthogonalLoop=1;jettySize=auto;html=1;exitX=0.5;exitY=1;exitDx=0;exitDy=0;entryX=0.5;entryY=0;entryDx=0;entryDy=0;" parent="1" source="lHafdiveaEFVnNRA9OqB-5" target="lHafdiveaEFVnNRA9OqB-9" edge="1">
          <mxGeometry relative="1" as="geometry" />
        </mxCell>
        <mxCell id="lHafdiveaEFVnNRA9OqB-5" value="Router" style="rounded=0;whiteSpace=wrap;html=1;fontFamily=Courier New;fillColor=#6a00ff;fontColor=#ffffff;strokeColor=#3700CC;" parent="1" vertex="1">
          <mxGeometry x="600" y="240" width="200" height="40" as="geometry" />
        </mxCell>
        <mxCell id="lHafdiveaEFVnNRA9OqB-6" value="..." style="text;html=1;align=center;verticalAlign=middle;resizable=0;points=[];autosize=1;strokeColor=none;fillColor=none;fontFamily=Courier New;" parent="1" vertex="1">
          <mxGeometry x="515" y="248" width="50" height="30" as="geometry" />
        </mxCell>
        <mxCell id="lHafdiveaEFVnNRA9OqB-63" style="edgeStyle=orthogonalEdgeStyle;rounded=0;orthogonalLoop=1;jettySize=auto;html=1;exitX=0.25;exitY=1;exitDx=0;exitDy=0;entryX=0;entryY=0.5;entryDx=0;entryDy=0;" parent="1" source="lHafdiveaEFVnNRA9OqB-8" target="lHafdiveaEFVnNRA9OqB-61" edge="1">
          <mxGeometry relative="1" as="geometry">
            <Array as="points">
              <mxPoint x="60" y="400" />
              <mxPoint x="60" y="470" />
            </Array>
          </mxGeometry>
        </mxCell>
        <mxCell id="lHafdiveaEFVnNRA9OqB-94" style="edgeStyle=orthogonalEdgeStyle;rounded=0;orthogonalLoop=1;jettySize=auto;html=1;exitX=0.5;exitY=1;exitDx=0;exitDy=0;entryX=0;entryY=0.5;entryDx=0;entryDy=0;" parent="1" source="lHafdiveaEFVnNRA9OqB-8" target="lHafdiveaEFVnNRA9OqB-66" edge="1">
          <mxGeometry relative="1" as="geometry">
            <Array as="points">
              <mxPoint x="70" y="400" />
              <mxPoint x="70" y="410" />
              <mxPoint x="60" y="410" />
              <mxPoint x="60" y="550" />
            </Array>
          </mxGeometry>
        </mxCell>
        <mxCell id="lHafdiveaEFVnNRA9OqB-95" style="edgeStyle=orthogonalEdgeStyle;rounded=0;orthogonalLoop=1;jettySize=auto;html=1;exitX=0.5;exitY=1;exitDx=0;exitDy=0;entryX=0;entryY=0.5;entryDx=0;entryDy=0;" parent="1" source="lHafdiveaEFVnNRA9OqB-8" target="lHafdiveaEFVnNRA9OqB-68" edge="1">
          <mxGeometry relative="1" as="geometry">
            <Array as="points">
              <mxPoint x="80" y="400" />
              <mxPoint x="80" y="410" />
              <mxPoint x="60" y="410" />
              <mxPoint x="60" y="630" />
            </Array>
          </mxGeometry>
        </mxCell>
        <mxCell id="lHafdiveaEFVnNRA9OqB-96" style="edgeStyle=orthogonalEdgeStyle;rounded=0;orthogonalLoop=1;jettySize=auto;html=1;exitX=0.5;exitY=1;exitDx=0;exitDy=0;entryX=0;entryY=0.5;entryDx=0;entryDy=0;" parent="1" source="lHafdiveaEFVnNRA9OqB-8" target="lHafdiveaEFVnNRA9OqB-70" edge="1">
          <mxGeometry relative="1" as="geometry">
            <Array as="points">
              <mxPoint x="90" y="400" />
              <mxPoint x="90" y="410" />
              <mxPoint x="60" y="410" />
              <mxPoint x="60" y="710" />
            </Array>
          </mxGeometry>
        </mxCell>
        <mxCell id="lHafdiveaEFVnNRA9OqB-8" value="Switch" style="rounded=0;whiteSpace=wrap;html=1;fontFamily=Courier New;fillColor=#d80073;fontColor=#ffffff;strokeColor=#A50040;" parent="1" vertex="1">
          <mxGeometry x="40" y="360" width="200" height="40" as="geometry" />
        </mxCell>
        <mxCell id="lHafdiveaEFVnNRA9OqB-142" style="edgeStyle=orthogonalEdgeStyle;rounded=0;orthogonalLoop=1;jettySize=auto;html=1;exitX=0.5;exitY=1;exitDx=0;exitDy=0;entryX=0;entryY=0.5;entryDx=0;entryDy=0;" parent="1" source="lHafdiveaEFVnNRA9OqB-9" target="lHafdiveaEFVnNRA9OqB-98" edge="1">
          <mxGeometry relative="1" as="geometry">
            <Array as="points">
              <mxPoint x="620" y="400" />
              <mxPoint x="620" y="470" />
            </Array>
          </mxGeometry>
        </mxCell>
        <mxCell id="lHafdiveaEFVnNRA9OqB-143" style="edgeStyle=orthogonalEdgeStyle;rounded=0;orthogonalLoop=1;jettySize=auto;html=1;exitX=0.5;exitY=1;exitDx=0;exitDy=0;entryX=0;entryY=0.5;entryDx=0;entryDy=0;" parent="1" source="lHafdiveaEFVnNRA9OqB-9" target="lHafdiveaEFVnNRA9OqB-101" edge="1">
          <mxGeometry relative="1" as="geometry">
            <Array as="points">
              <mxPoint x="630" y="400" />
              <mxPoint x="630" y="410" />
              <mxPoint x="620" y="410" />
              <mxPoint x="620" y="550" />
            </Array>
          </mxGeometry>
        </mxCell>
        <mxCell id="lHafdiveaEFVnNRA9OqB-144" style="edgeStyle=orthogonalEdgeStyle;rounded=0;orthogonalLoop=1;jettySize=auto;html=1;exitX=0.5;exitY=1;exitDx=0;exitDy=0;entryX=0;entryY=0.5;entryDx=0;entryDy=0;" parent="1" source="lHafdiveaEFVnNRA9OqB-9" target="lHafdiveaEFVnNRA9OqB-103" edge="1">
          <mxGeometry relative="1" as="geometry">
            <Array as="points">
              <mxPoint x="640" y="400" />
              <mxPoint x="640" y="410" />
              <mxPoint x="620" y="410" />
              <mxPoint x="620" y="630" />
            </Array>
          </mxGeometry>
        </mxCell>
        <mxCell id="lHafdiveaEFVnNRA9OqB-145" style="edgeStyle=orthogonalEdgeStyle;rounded=0;orthogonalLoop=1;jettySize=auto;html=1;exitX=0.5;exitY=1;exitDx=0;exitDy=0;entryX=0;entryY=0.5;entryDx=0;entryDy=0;" parent="1" source="lHafdiveaEFVnNRA9OqB-9" target="lHafdiveaEFVnNRA9OqB-105" edge="1">
          <mxGeometry relative="1" as="geometry">
            <Array as="points">
              <mxPoint x="650" y="400" />
              <mxPoint x="650" y="410" />
              <mxPoint x="620" y="410" />
              <mxPoint x="620" y="710" />
            </Array>
          </mxGeometry>
        </mxCell>
        <mxCell id="lHafdiveaEFVnNRA9OqB-9" value="Switch" style="rounded=0;whiteSpace=wrap;html=1;fontFamily=Courier New;fillColor=#d80073;fontColor=#ffffff;strokeColor=#A50040;" parent="1" vertex="1">
          <mxGeometry x="600" y="360" width="200" height="40" as="geometry" />
        </mxCell>
        <mxCell id="lHafdiveaEFVnNRA9OqB-168" style="edgeStyle=orthogonalEdgeStyle;rounded=0;orthogonalLoop=1;jettySize=auto;html=1;entryX=0;entryY=0.5;entryDx=0;entryDy=0;" parent="1" source="lHafdiveaEFVnNRA9OqB-25" target="lHafdiveaEFVnNRA9OqB-60" edge="1">
          <mxGeometry relative="1" as="geometry">
            <Array as="points">
              <mxPoint x="310" y="490" />
            </Array>
          </mxGeometry>
        </mxCell>
        <mxCell id="lHafdiveaEFVnNRA9OqB-169" style="edgeStyle=orthogonalEdgeStyle;rounded=0;orthogonalLoop=1;jettySize=auto;html=1;exitX=0.5;exitY=1;exitDx=0;exitDy=0;entryX=0;entryY=0.5;entryDx=0;entryDy=0;" parent="1" source="lHafdiveaEFVnNRA9OqB-25" target="lHafdiveaEFVnNRA9OqB-74" edge="1">
          <mxGeometry relative="1" as="geometry">
            <Array as="points">
              <mxPoint x="320" y="400" />
              <mxPoint x="320" y="410" />
              <mxPoint x="310" y="410" />
              <mxPoint x="310" y="570" />
            </Array>
          </mxGeometry>
        </mxCell>
        <mxCell id="lHafdiveaEFVnNRA9OqB-170" style="edgeStyle=orthogonalEdgeStyle;rounded=0;orthogonalLoop=1;jettySize=auto;html=1;exitX=0.5;exitY=1;exitDx=0;exitDy=0;entryX=0;entryY=0.5;entryDx=0;entryDy=0;" parent="1" source="lHafdiveaEFVnNRA9OqB-25" target="lHafdiveaEFVnNRA9OqB-78" edge="1">
          <mxGeometry relative="1" as="geometry">
            <Array as="points">
              <mxPoint x="330" y="400" />
              <mxPoint x="330" y="410" />
              <mxPoint x="310" y="410" />
              <mxPoint x="310" y="650" />
            </Array>
          </mxGeometry>
        </mxCell>
        <mxCell id="lHafdiveaEFVnNRA9OqB-171" style="edgeStyle=orthogonalEdgeStyle;rounded=0;orthogonalLoop=1;jettySize=auto;html=1;exitX=0.5;exitY=1;exitDx=0;exitDy=0;entryX=0;entryY=0.5;entryDx=0;entryDy=0;" parent="1" source="lHafdiveaEFVnNRA9OqB-25" target="lHafdiveaEFVnNRA9OqB-80" edge="1">
          <mxGeometry relative="1" as="geometry">
            <Array as="points">
              <mxPoint x="340" y="400" />
              <mxPoint x="340" y="410" />
              <mxPoint x="310" y="410" />
              <mxPoint x="310" y="730" />
            </Array>
          </mxGeometry>
        </mxCell>
        <mxCell id="lHafdiveaEFVnNRA9OqB-25" value="Switch" style="rounded=0;whiteSpace=wrap;html=1;fontFamily=Courier New;fillColor=#d80073;fontColor=#ffffff;strokeColor=#A50040;" parent="1" vertex="1">
          <mxGeometry x="280" y="360" width="200" height="40" as="geometry" />
        </mxCell>
        <mxCell id="lHafdiveaEFVnNRA9OqB-139" style="edgeStyle=orthogonalEdgeStyle;rounded=0;orthogonalLoop=1;jettySize=auto;html=1;exitX=0.5;exitY=1;exitDx=0;exitDy=0;entryX=0.5;entryY=0;entryDx=0;entryDy=0;" parent="1" source="lHafdiveaEFVnNRA9OqB-35" target="lHafdiveaEFVnNRA9OqB-36" edge="1">
          <mxGeometry relative="1" as="geometry" />
        </mxCell>
        <mxCell id="lHafdiveaEFVnNRA9OqB-35" value="Router" style="rounded=0;whiteSpace=wrap;html=1;fontFamily=Courier New;fillColor=#6a00ff;fontColor=#ffffff;strokeColor=#3700CC;" parent="1" vertex="1">
          <mxGeometry x="840" y="240" width="200" height="40" as="geometry" />
        </mxCell>
        <mxCell id="lHafdiveaEFVnNRA9OqB-164" style="edgeStyle=orthogonalEdgeStyle;rounded=0;orthogonalLoop=1;jettySize=auto;html=1;exitX=0.5;exitY=1;exitDx=0;exitDy=0;entryX=0;entryY=0.5;entryDx=0;entryDy=0;" parent="1" source="lHafdiveaEFVnNRA9OqB-36" target="lHafdiveaEFVnNRA9OqB-108" edge="1">
          <mxGeometry relative="1" as="geometry">
            <Array as="points">
              <mxPoint x="870" y="400" />
              <mxPoint x="870" y="490" />
            </Array>
          </mxGeometry>
        </mxCell>
        <mxCell id="lHafdiveaEFVnNRA9OqB-165" style="edgeStyle=orthogonalEdgeStyle;rounded=0;orthogonalLoop=1;jettySize=auto;html=1;exitX=0.5;exitY=1;exitDx=0;exitDy=0;entryX=0;entryY=0.5;entryDx=0;entryDy=0;" parent="1" source="lHafdiveaEFVnNRA9OqB-36" target="lHafdiveaEFVnNRA9OqB-110" edge="1">
          <mxGeometry relative="1" as="geometry">
            <Array as="points">
              <mxPoint x="880" y="400" />
              <mxPoint x="880" y="410" />
              <mxPoint x="870" y="410" />
              <mxPoint x="870" y="570" />
            </Array>
          </mxGeometry>
        </mxCell>
        <mxCell id="lHafdiveaEFVnNRA9OqB-166" style="edgeStyle=orthogonalEdgeStyle;rounded=0;orthogonalLoop=1;jettySize=auto;html=1;exitX=0.5;exitY=1;exitDx=0;exitDy=0;entryX=0;entryY=0.5;entryDx=0;entryDy=0;" parent="1" source="lHafdiveaEFVnNRA9OqB-36" target="lHafdiveaEFVnNRA9OqB-112" edge="1">
          <mxGeometry relative="1" as="geometry">
            <Array as="points">
              <mxPoint x="890" y="400" />
              <mxPoint x="890" y="410" />
              <mxPoint x="870" y="410" />
              <mxPoint x="870" y="650" />
            </Array>
          </mxGeometry>
        </mxCell>
        <mxCell id="lHafdiveaEFVnNRA9OqB-167" style="edgeStyle=orthogonalEdgeStyle;rounded=0;orthogonalLoop=1;jettySize=auto;html=1;exitX=0.5;exitY=1;exitDx=0;exitDy=0;entryX=0;entryY=0.5;entryDx=0;entryDy=0;" parent="1" source="lHafdiveaEFVnNRA9OqB-36" target="lHafdiveaEFVnNRA9OqB-114" edge="1">
          <mxGeometry relative="1" as="geometry">
            <Array as="points">
              <mxPoint x="900" y="400" />
              <mxPoint x="900" y="410" />
              <mxPoint x="870" y="410" />
              <mxPoint x="870" y="730" />
            </Array>
          </mxGeometry>
        </mxCell>
        <mxCell id="lHafdiveaEFVnNRA9OqB-36" value="Switch" style="rounded=0;whiteSpace=wrap;html=1;fontFamily=Courier New;fillColor=#d80073;fontColor=#ffffff;strokeColor=#A50040;" parent="1" vertex="1">
          <mxGeometry x="840" y="360" width="200" height="40" as="geometry" />
        </mxCell>
        <mxCell id="lHafdiveaEFVnNRA9OqB-47" value="LB Layer 7" style="rounded=1;whiteSpace=wrap;html=1;fontFamily=Courier New;fillColor=#fa6800;fontColor=#000000;strokeColor=#C73500;" parent="1" vertex="1">
          <mxGeometry x="1140" y="480" width="160" height="30" as="geometry" />
        </mxCell>
        <mxCell id="lHafdiveaEFVnNRA9OqB-49" value="LB Layer 7" style="rounded=1;whiteSpace=wrap;html=1;fontFamily=Courier New;fillColor=#fa6800;fontColor=#000000;strokeColor=#C73500;" parent="1" vertex="1">
          <mxGeometry x="1142.5" y="520" width="160" height="30" as="geometry" />
        </mxCell>
        <mxCell id="lHafdiveaEFVnNRA9OqB-50" value="LB Layer 7" style="rounded=1;whiteSpace=wrap;html=1;fontFamily=Courier New;fillColor=#fa6800;fontColor=#000000;strokeColor=#C73500;" parent="1" vertex="1">
          <mxGeometry x="1142.5" y="560" width="160" height="30" as="geometry" />
        </mxCell>
        <mxCell id="lHafdiveaEFVnNRA9OqB-51" value="LB Layer 7" style="rounded=1;whiteSpace=wrap;html=1;fontFamily=Courier New;fillColor=#fa6800;fontColor=#000000;strokeColor=#C73500;" parent="1" vertex="1">
          <mxGeometry x="1142.5" y="600" width="160" height="30" as="geometry" />
        </mxCell>
        <mxCell id="lHafdiveaEFVnNRA9OqB-52" value="LB Layer 7" style="rounded=1;whiteSpace=wrap;html=1;fontFamily=Courier New;fillColor=#fa6800;fontColor=#000000;strokeColor=#C73500;" parent="1" vertex="1">
          <mxGeometry x="1142.5" y="640" width="160" height="30" as="geometry" />
        </mxCell>
        <mxCell id="lHafdiveaEFVnNRA9OqB-60" value="VM&lt;br&gt;&lt;br&gt;&lt;div&gt;&lt;br&gt;&lt;/div&gt;&lt;div&gt;&lt;br&gt;&lt;/div&gt;" style="rounded=0;whiteSpace=wrap;html=1;align=left;fontFamily=Courier New;fillColor=#a20025;fontColor=#ffffff;strokeColor=#6F0000;" parent="1" vertex="1">
          <mxGeometry x="330" y="460" width="180" height="60" as="geometry" />
        </mxCell>
        <mxCell id="lHafdiveaEFVnNRA9OqB-61" value="PHY&lt;br&gt;&lt;br&gt;&lt;div&gt;&lt;br&gt;&lt;/div&gt;&lt;div&gt;&lt;br&gt;&lt;/div&gt;" style="rounded=0;whiteSpace=wrap;html=1;align=left;fontFamily=Courier New;fillColor=#76608a;fontColor=#ffffff;strokeColor=#432D57;" parent="1" vertex="1">
          <mxGeometry x="80" y="440" width="200" height="60" as="geometry" />
        </mxCell>
        <mxCell id="lHafdiveaEFVnNRA9OqB-62" value="Maglev LB Layer 4" style="rounded=1;whiteSpace=wrap;html=1;fontFamily=Courier New;fillColor=#a0522d;fontColor=#ffffff;strokeColor=#6D1F00;" parent="1" vertex="1">
          <mxGeometry x="110" y="460" width="160" height="30" as="geometry" />
        </mxCell>
        <mxCell id="lHafdiveaEFVnNRA9OqB-66" value="PHY&lt;br&gt;&lt;br&gt;&lt;div&gt;&lt;br&gt;&lt;/div&gt;&lt;div&gt;&lt;br&gt;&lt;/div&gt;" style="rounded=0;whiteSpace=wrap;html=1;align=left;fontFamily=Courier New;fillColor=#76608a;fontColor=#ffffff;strokeColor=#432D57;" parent="1" vertex="1">
          <mxGeometry x="80" y="520" width="200" height="60" as="geometry" />
        </mxCell>
        <mxCell id="lHafdiveaEFVnNRA9OqB-67" value="Maglev LB Layer 4" style="rounded=1;whiteSpace=wrap;html=1;fontFamily=Courier New;fillColor=#a0522d;fontColor=#ffffff;strokeColor=#6D1F00;" parent="1" vertex="1">
          <mxGeometry x="110" y="540" width="160" height="30" as="geometry" />
        </mxCell>
        <mxCell id="lHafdiveaEFVnNRA9OqB-68" value="PHY&lt;br&gt;&lt;br&gt;&lt;div&gt;&lt;br&gt;&lt;/div&gt;&lt;div&gt;&lt;br&gt;&lt;/div&gt;" style="rounded=0;whiteSpace=wrap;html=1;align=left;fontFamily=Courier New;fillColor=#76608a;fontColor=#ffffff;strokeColor=#432D57;" parent="1" vertex="1">
          <mxGeometry x="80" y="600" width="200" height="60" as="geometry" />
        </mxCell>
        <mxCell id="lHafdiveaEFVnNRA9OqB-69" value="Maglev LB Layer 4" style="rounded=1;whiteSpace=wrap;html=1;fontFamily=Courier New;fillColor=#a0522d;fontColor=#ffffff;strokeColor=#6D1F00;" parent="1" vertex="1">
          <mxGeometry x="110" y="620" width="160" height="30" as="geometry" />
        </mxCell>
        <mxCell id="lHafdiveaEFVnNRA9OqB-70" value="PHY&lt;br&gt;&lt;br&gt;&lt;div&gt;&lt;br&gt;&lt;/div&gt;&lt;div&gt;&lt;br&gt;&lt;/div&gt;" style="rounded=0;whiteSpace=wrap;html=1;align=left;fontFamily=Courier New;fillColor=#76608a;fontColor=#ffffff;strokeColor=#432D57;" parent="1" vertex="1">
          <mxGeometry x="80" y="680" width="200" height="60" as="geometry" />
        </mxCell>
        <mxCell id="lHafdiveaEFVnNRA9OqB-71" value="Maglev LB Layer 4" style="rounded=1;whiteSpace=wrap;html=1;fontFamily=Courier New;fillColor=#a0522d;fontColor=#ffffff;strokeColor=#6D1F00;" parent="1" vertex="1">
          <mxGeometry x="110" y="700" width="160" height="30" as="geometry" />
        </mxCell>
        <mxCell id="lHafdiveaEFVnNRA9OqB-74" value="VM&lt;br&gt;&lt;br&gt;&lt;div&gt;&lt;br&gt;&lt;/div&gt;&lt;div&gt;&lt;br&gt;&lt;/div&gt;" style="rounded=0;whiteSpace=wrap;html=1;align=left;fontFamily=Courier New;fillColor=#a20025;fontColor=#ffffff;strokeColor=#6F0000;" parent="1" vertex="1">
          <mxGeometry x="330" y="540" width="180" height="60" as="geometry" />
        </mxCell>
        <mxCell id="lHafdiveaEFVnNRA9OqB-75" value="Maglev LB Layer 4" style="rounded=1;whiteSpace=wrap;html=1;fontFamily=Courier New;fillColor=#a0522d;fontColor=#ffffff;strokeColor=#6D1F00;" parent="1" vertex="1">
          <mxGeometry x="340" y="560" width="160" height="30" as="geometry" />
        </mxCell>
        <mxCell id="lHafdiveaEFVnNRA9OqB-78" value="VM&lt;br&gt;&lt;br&gt;&lt;div&gt;&lt;br&gt;&lt;/div&gt;&lt;div&gt;&lt;br&gt;&lt;/div&gt;" style="rounded=0;whiteSpace=wrap;html=1;align=left;fontFamily=Courier New;fillColor=#a20025;fontColor=#ffffff;strokeColor=#6F0000;" parent="1" vertex="1">
          <mxGeometry x="330" y="620" width="180" height="60" as="geometry" />
        </mxCell>
        <mxCell id="lHafdiveaEFVnNRA9OqB-79" value="Maglev LB Layer 4" style="rounded=1;whiteSpace=wrap;html=1;fontFamily=Courier New;fillColor=#a0522d;fontColor=#ffffff;strokeColor=#6D1F00;" parent="1" vertex="1">
          <mxGeometry x="340" y="640" width="160" height="30" as="geometry" />
        </mxCell>
        <mxCell id="lHafdiveaEFVnNRA9OqB-80" value="VM&lt;br&gt;&lt;br&gt;&lt;div&gt;&lt;br&gt;&lt;/div&gt;&lt;div&gt;&lt;br&gt;&lt;/div&gt;" style="rounded=0;whiteSpace=wrap;html=1;align=left;fontFamily=Courier New;fillColor=#a20025;fontColor=#ffffff;strokeColor=#6F0000;" parent="1" vertex="1">
          <mxGeometry x="330" y="700" width="180" height="60" as="geometry" />
        </mxCell>
        <mxCell id="lHafdiveaEFVnNRA9OqB-81" value="Maglev LB Layer 4" style="rounded=1;whiteSpace=wrap;html=1;fontFamily=Courier New;fillColor=#a0522d;fontColor=#ffffff;strokeColor=#6D1F00;" parent="1" vertex="1">
          <mxGeometry x="340" y="720" width="160" height="30" as="geometry" />
        </mxCell>
        <mxCell id="lHafdiveaEFVnNRA9OqB-87" value="LB Layer 7" style="rounded=1;whiteSpace=wrap;html=1;fontFamily=Courier New;fillColor=#fa6800;fontColor=#000000;strokeColor=#C73500;" parent="1" vertex="1">
          <mxGeometry x="1142.5" y="680" width="160" height="30" as="geometry" />
        </mxCell>
        <mxCell id="lHafdiveaEFVnNRA9OqB-88" value="LB Layer 7" style="rounded=1;whiteSpace=wrap;html=1;fontFamily=Courier New;fillColor=#fa6800;fontColor=#000000;strokeColor=#C73500;" parent="1" vertex="1">
          <mxGeometry x="1142.5" y="720" width="160" height="30" as="geometry" />
        </mxCell>
        <mxCell id="lHafdiveaEFVnNRA9OqB-98" value="PHY&lt;br&gt;&lt;br&gt;&lt;div&gt;&lt;br&gt;&lt;/div&gt;&lt;div&gt;&lt;br&gt;&lt;/div&gt;" style="rounded=0;whiteSpace=wrap;html=1;align=left;fontFamily=Courier New;fillColor=#76608a;fontColor=#ffffff;strokeColor=#432D57;" parent="1" vertex="1">
          <mxGeometry x="640" y="440" width="200" height="60" as="geometry" />
        </mxCell>
        <mxCell id="lHafdiveaEFVnNRA9OqB-100" value="LB Layer 7" style="rounded=1;whiteSpace=wrap;html=1;fontFamily=Courier New;fillColor=#fa6800;fontColor=#000000;strokeColor=#C73500;" parent="1" vertex="1">
          <mxGeometry x="670" y="460" width="160" height="30" as="geometry" />
        </mxCell>
        <mxCell id="lHafdiveaEFVnNRA9OqB-101" value="PHY&lt;br&gt;&lt;br&gt;&lt;div&gt;&lt;br&gt;&lt;/div&gt;&lt;div&gt;&lt;br&gt;&lt;/div&gt;" style="rounded=0;whiteSpace=wrap;html=1;align=left;fontFamily=Courier New;fillColor=#76608a;fontColor=#ffffff;strokeColor=#432D57;" parent="1" vertex="1">
          <mxGeometry x="640" y="520" width="200" height="60" as="geometry" />
        </mxCell>
        <mxCell id="lHafdiveaEFVnNRA9OqB-102" value="LB Layer 7" style="rounded=1;whiteSpace=wrap;html=1;fontFamily=Courier New;fillColor=#fa6800;fontColor=#000000;strokeColor=#C73500;" parent="1" vertex="1">
          <mxGeometry x="670" y="540" width="160" height="30" as="geometry" />
        </mxCell>
        <mxCell id="lHafdiveaEFVnNRA9OqB-103" value="PHY&lt;br&gt;&lt;br&gt;&lt;div&gt;&lt;br&gt;&lt;/div&gt;&lt;div&gt;&lt;br&gt;&lt;/div&gt;" style="rounded=0;whiteSpace=wrap;html=1;align=left;fontFamily=Courier New;fillColor=#76608a;fontColor=#ffffff;strokeColor=#432D57;" parent="1" vertex="1">
          <mxGeometry x="640" y="600" width="200" height="60" as="geometry" />
        </mxCell>
        <mxCell id="lHafdiveaEFVnNRA9OqB-104" value="LB Layer 7" style="rounded=1;whiteSpace=wrap;html=1;fontFamily=Courier New;fillColor=#fa6800;fontColor=#000000;strokeColor=#C73500;" parent="1" vertex="1">
          <mxGeometry x="670" y="620" width="160" height="30" as="geometry" />
        </mxCell>
        <mxCell id="lHafdiveaEFVnNRA9OqB-105" value="PHY&lt;br&gt;&lt;br&gt;&lt;div&gt;&lt;br&gt;&lt;/div&gt;&lt;div&gt;&lt;br&gt;&lt;/div&gt;" style="rounded=0;whiteSpace=wrap;html=1;align=left;fontFamily=Courier New;fillColor=#76608a;fontColor=#ffffff;strokeColor=#432D57;" parent="1" vertex="1">
          <mxGeometry x="640" y="680" width="200" height="60" as="geometry" />
        </mxCell>
        <mxCell id="lHafdiveaEFVnNRA9OqB-106" value="LB Layer 7" style="rounded=1;whiteSpace=wrap;html=1;fontFamily=Courier New;fillColor=#fa6800;fontColor=#000000;strokeColor=#C73500;" parent="1" vertex="1">
          <mxGeometry x="670" y="700" width="160" height="30" as="geometry" />
        </mxCell>
        <mxCell id="lHafdiveaEFVnNRA9OqB-108" value="VM&lt;br&gt;&lt;br&gt;&lt;div&gt;&lt;br&gt;&lt;/div&gt;&lt;div&gt;&lt;br&gt;&lt;/div&gt;" style="rounded=0;whiteSpace=wrap;html=1;align=left;fontFamily=Courier New;fillColor=#a20025;fontColor=#ffffff;strokeColor=#6F0000;" parent="1" vertex="1">
          <mxGeometry x="890" y="460" width="180" height="60" as="geometry" />
        </mxCell>
        <mxCell id="lHafdiveaEFVnNRA9OqB-109" value="LB Layer 7" style="rounded=1;whiteSpace=wrap;html=1;fontFamily=Courier New;fillColor=#fa6800;fontColor=#000000;strokeColor=#C73500;" parent="1" vertex="1">
          <mxGeometry x="900" y="480" width="160" height="30" as="geometry" />
        </mxCell>
        <mxCell id="lHafdiveaEFVnNRA9OqB-110" value="VM&lt;br&gt;&lt;br&gt;&lt;div&gt;&lt;br&gt;&lt;/div&gt;&lt;div&gt;&lt;br&gt;&lt;/div&gt;" style="rounded=0;whiteSpace=wrap;html=1;align=left;fontFamily=Courier New;fillColor=#a20025;fontColor=#ffffff;strokeColor=#6F0000;" parent="1" vertex="1">
          <mxGeometry x="890" y="540" width="180" height="60" as="geometry" />
        </mxCell>
        <mxCell id="lHafdiveaEFVnNRA9OqB-111" value="LB Layer 7" style="rounded=1;whiteSpace=wrap;html=1;fontFamily=Courier New;fillColor=#fa6800;fontColor=#000000;strokeColor=#C73500;" parent="1" vertex="1">
          <mxGeometry x="900" y="560" width="160" height="30" as="geometry" />
        </mxCell>
        <mxCell id="lHafdiveaEFVnNRA9OqB-112" value="VM&lt;br&gt;&lt;br&gt;&lt;div&gt;&lt;br&gt;&lt;/div&gt;&lt;div&gt;&lt;br&gt;&lt;/div&gt;" style="rounded=0;whiteSpace=wrap;html=1;align=left;fontFamily=Courier New;fillColor=#a20025;fontColor=#ffffff;strokeColor=#6F0000;" parent="1" vertex="1">
          <mxGeometry x="890" y="620" width="180" height="60" as="geometry" />
        </mxCell>
        <mxCell id="lHafdiveaEFVnNRA9OqB-113" value="LB Layer 7" style="rounded=1;whiteSpace=wrap;html=1;fontFamily=Courier New;fillColor=#fa6800;fontColor=#000000;strokeColor=#C73500;" parent="1" vertex="1">
          <mxGeometry x="900" y="640" width="160" height="30" as="geometry" />
        </mxCell>
        <mxCell id="lHafdiveaEFVnNRA9OqB-114" value="VM&lt;br&gt;&lt;br&gt;&lt;div&gt;&lt;br&gt;&lt;/div&gt;&lt;div&gt;&lt;br&gt;&lt;/div&gt;" style="rounded=0;whiteSpace=wrap;html=1;align=left;fontFamily=Courier New;fillColor=#a20025;fontColor=#ffffff;strokeColor=#6F0000;" parent="1" vertex="1">
          <mxGeometry x="890" y="700" width="180" height="60" as="geometry" />
        </mxCell>
        <mxCell id="lHafdiveaEFVnNRA9OqB-115" value="LB Layer 7" style="rounded=1;whiteSpace=wrap;html=1;fontFamily=Courier New;fillColor=#fa6800;fontColor=#000000;strokeColor=#C73500;" parent="1" vertex="1">
          <mxGeometry x="900" y="720" width="160" height="30" as="geometry" />
        </mxCell>
        <mxCell id="lHafdiveaEFVnNRA9OqB-116" value="Maglev LB Layer 4" style="rounded=1;whiteSpace=wrap;html=1;fontFamily=Courier New;fillColor=#a0522d;fontColor=#ffffff;strokeColor=#6D1F00;" parent="1" vertex="1">
          <mxGeometry x="340" y="480" width="160" height="30" as="geometry" />
        </mxCell>
        <mxCell id="lHafdiveaEFVnNRA9OqB-151" style="edgeStyle=orthogonalEdgeStyle;rounded=0;orthogonalLoop=1;jettySize=auto;html=1;exitX=0.5;exitY=1;exitDx=0;exitDy=0;entryX=0;entryY=0.25;entryDx=0;entryDy=0;" parent="1" source="lHafdiveaEFVnNRA9OqB-117" target="lHafdiveaEFVnNRA9OqB-85" edge="1">
          <mxGeometry relative="1" as="geometry">
            <Array as="points">
              <mxPoint x="1115" y="400" />
              <mxPoint x="1115" y="535" />
            </Array>
          </mxGeometry>
        </mxCell>
        <mxCell id="lHafdiveaEFVnNRA9OqB-117" value="Switch" style="rounded=0;whiteSpace=wrap;html=1;fontFamily=Courier New;fillColor=#d80073;fontColor=#ffffff;strokeColor=#A50040;" parent="1" vertex="1">
          <mxGeometry x="1080" y="360" width="200" height="40" as="geometry" />
        </mxCell>
        <mxCell id="lHafdiveaEFVnNRA9OqB-119" value="Swarm/Compose&lt;br&gt;&lt;br&gt;&lt;div&gt;&lt;br&gt;&lt;/div&gt;&lt;div&gt;&lt;br&gt;&lt;/div&gt;&lt;div&gt;&lt;br&gt;&lt;/div&gt;&lt;div&gt;&lt;br&gt;&lt;/div&gt;&lt;div&gt;&lt;br&gt;&lt;/div&gt;&lt;div&gt;&lt;br&gt;&lt;/div&gt;&lt;div&gt;&lt;br&gt;&lt;/div&gt;&lt;div&gt;&lt;br&gt;&lt;/div&gt;" style="rounded=0;whiteSpace=wrap;html=1;align=left;fontFamily=Courier New;fillColor=#6d8764;fontColor=#ffffff;strokeColor=#3A5431;" parent="1" vertex="1">
          <mxGeometry x="1375" y="485" width="165" height="140" as="geometry" />
        </mxCell>
        <mxCell id="lHafdiveaEFVnNRA9OqB-120" value="LB Layer 7" style="rounded=1;whiteSpace=wrap;html=1;fontFamily=Courier New;fillColor=#fa6800;fontColor=#000000;strokeColor=#C73500;" parent="1" vertex="1">
          <mxGeometry x="1380" y="505" width="150" height="30" as="geometry" />
        </mxCell>
        <mxCell id="lHafdiveaEFVnNRA9OqB-121" value="LB Layer 7" style="rounded=1;whiteSpace=wrap;html=1;fontFamily=Courier New;fillColor=#fa6800;fontColor=#000000;strokeColor=#C73500;" parent="1" vertex="1">
          <mxGeometry x="1382.5" y="545" width="147.5" height="30" as="geometry" />
        </mxCell>
        <mxCell id="lHafdiveaEFVnNRA9OqB-122" value="LB Layer 7" style="rounded=1;whiteSpace=wrap;html=1;fontFamily=Courier New;fillColor=#fa6800;fontColor=#000000;strokeColor=#C73500;" parent="1" vertex="1">
          <mxGeometry x="1382.5" y="585" width="147.5" height="30" as="geometry" />
        </mxCell>
        <mxCell id="lHafdiveaEFVnNRA9OqB-154" style="edgeStyle=orthogonalEdgeStyle;rounded=0;orthogonalLoop=1;jettySize=auto;html=1;exitX=0.5;exitY=1;exitDx=0;exitDy=0;entryX=0;entryY=0.25;entryDx=0;entryDy=0;" parent="1" source="lHafdiveaEFVnNRA9OqB-127" target="lHafdiveaEFVnNRA9OqB-132" edge="1">
          <mxGeometry relative="1" as="geometry">
            <Array as="points">
              <mxPoint x="1360" y="400" />
              <mxPoint x="1360" y="410" />
              <mxPoint x="1350" y="410" />
              <mxPoint x="1350" y="697" />
            </Array>
          </mxGeometry>
        </mxCell>
        <mxCell id="lHafdiveaEFVnNRA9OqB-163" style="edgeStyle=orthogonalEdgeStyle;rounded=0;orthogonalLoop=1;jettySize=auto;html=1;exitX=0.5;exitY=1;exitDx=0;exitDy=0;entryX=0;entryY=0.25;entryDx=0;entryDy=0;" parent="1" source="lHafdiveaEFVnNRA9OqB-127" target="lHafdiveaEFVnNRA9OqB-130" edge="1">
          <mxGeometry relative="1" as="geometry">
            <Array as="points">
              <mxPoint x="1350" y="400" />
              <mxPoint x="1350" y="502" />
            </Array>
          </mxGeometry>
        </mxCell>
        <mxCell id="lHafdiveaEFVnNRA9OqB-127" value="Switch" style="rounded=0;whiteSpace=wrap;html=1;fontFamily=Courier New;fillColor=#d80073;fontColor=#ffffff;strokeColor=#A50040;" parent="1" vertex="1">
          <mxGeometry x="1320" y="360" width="200" height="40" as="geometry" />
        </mxCell>
        <mxCell id="lHafdiveaEFVnNRA9OqB-140" style="edgeStyle=orthogonalEdgeStyle;rounded=0;orthogonalLoop=1;jettySize=auto;html=1;exitX=0.5;exitY=1;exitDx=0;exitDy=0;entryX=0.5;entryY=0;entryDx=0;entryDy=0;" parent="1" source="lHafdiveaEFVnNRA9OqB-128" target="lHafdiveaEFVnNRA9OqB-117" edge="1">
          <mxGeometry relative="1" as="geometry" />
        </mxCell>
        <mxCell id="lHafdiveaEFVnNRA9OqB-128" value="Router" style="rounded=0;whiteSpace=wrap;html=1;fontFamily=Courier New;fillColor=#6a00ff;fontColor=#ffffff;strokeColor=#3700CC;" parent="1" vertex="1">
          <mxGeometry x="1080" y="238" width="200" height="40" as="geometry" />
        </mxCell>
        <mxCell id="lHafdiveaEFVnNRA9OqB-141" style="edgeStyle=orthogonalEdgeStyle;rounded=0;orthogonalLoop=1;jettySize=auto;html=1;exitX=0.5;exitY=1;exitDx=0;exitDy=0;entryX=0.5;entryY=0;entryDx=0;entryDy=0;" parent="1" source="lHafdiveaEFVnNRA9OqB-129" target="lHafdiveaEFVnNRA9OqB-127" edge="1">
          <mxGeometry relative="1" as="geometry" />
        </mxCell>
        <mxCell id="lHafdiveaEFVnNRA9OqB-129" value="Router" style="rounded=0;whiteSpace=wrap;html=1;fontFamily=Courier New;fillColor=#6a00ff;fontColor=#ffffff;strokeColor=#3700CC;" parent="1" vertex="1">
          <mxGeometry x="1320" y="238" width="200" height="40" as="geometry" />
        </mxCell>
        <mxCell id="lHafdiveaEFVnNRA9OqB-132" value="VM&lt;br&gt;&lt;br&gt;&lt;div&gt;&lt;br&gt;&lt;/div&gt;&lt;div&gt;&lt;br&gt;&lt;/div&gt;&lt;div&gt;&lt;br&gt;&lt;/div&gt;&lt;div&gt;&lt;br&gt;&lt;/div&gt;&lt;div&gt;&lt;br&gt;&lt;/div&gt;&lt;div&gt;&lt;br&gt;&lt;/div&gt;&lt;div&gt;&lt;br&gt;&lt;/div&gt;&lt;div&gt;&lt;br&gt;&lt;/div&gt;&lt;div&gt;&lt;br&gt;&lt;/div&gt;&lt;div&gt;&lt;br&gt;&lt;/div&gt;" style="rounded=0;whiteSpace=wrap;html=1;align=left;fontFamily=Courier New;fillColor=#a20025;fontColor=#ffffff;strokeColor=#6F0000;" parent="1" vertex="1">
          <mxGeometry x="1370" y="655" width="180" height="170" as="geometry" />
        </mxCell>
        <mxCell id="lHafdiveaEFVnNRA9OqB-133" value="Swarm/Compose&lt;br&gt;&lt;br&gt;&lt;div&gt;&lt;br&gt;&lt;/div&gt;&lt;div&gt;&lt;br&gt;&lt;/div&gt;&lt;div&gt;&lt;br&gt;&lt;/div&gt;&lt;div&gt;&lt;br&gt;&lt;/div&gt;&lt;div&gt;&lt;br&gt;&lt;/div&gt;&lt;div&gt;&lt;br&gt;&lt;/div&gt;&lt;div&gt;&lt;br&gt;&lt;/div&gt;&lt;div&gt;&lt;br&gt;&lt;/div&gt;" style="rounded=0;whiteSpace=wrap;html=1;align=left;fontFamily=Courier New;fillColor=#6d8764;fontColor=#ffffff;strokeColor=#3A5431;" parent="1" vertex="1">
          <mxGeometry x="1375" y="680" width="165" height="140" as="geometry" />
        </mxCell>
        <mxCell id="lHafdiveaEFVnNRA9OqB-134" value="LB Layer 7" style="rounded=1;whiteSpace=wrap;html=1;fontFamily=Courier New;fillColor=#fa6800;fontColor=#000000;strokeColor=#C73500;" parent="1" vertex="1">
          <mxGeometry x="1380" y="700" width="150" height="30" as="geometry" />
        </mxCell>
        <mxCell id="lHafdiveaEFVnNRA9OqB-135" value="LB Layer 7" style="rounded=1;whiteSpace=wrap;html=1;fontFamily=Courier New;fillColor=#fa6800;fontColor=#000000;strokeColor=#C73500;" parent="1" vertex="1">
          <mxGeometry x="1382.5" y="740" width="147.5" height="30" as="geometry" />
        </mxCell>
        <mxCell id="lHafdiveaEFVnNRA9OqB-136" value="LB Layer 7" style="rounded=1;whiteSpace=wrap;html=1;fontFamily=Courier New;fillColor=#fa6800;fontColor=#000000;strokeColor=#C73500;" parent="1" vertex="1">
          <mxGeometry x="1382.5" y="780" width="147.5" height="30" as="geometry" />
        </mxCell>
        <mxCell id="lHafdiveaEFVnNRA9OqB-137" value="..." style="text;html=1;align=center;verticalAlign=middle;resizable=0;points=[];autosize=1;strokeColor=none;fillColor=none;fontFamily=Courier New;fontSize=10;" parent="1" vertex="1">
          <mxGeometry x="1360" y="625" width="40" height="30" as="geometry" />
        </mxCell>
      </root>
    </mxGraphModel>
  </diagram>
</mxfile>
